# AST/ASF file generated using VICON BodyLanguage
# -----------------------------------------------
:version 1.10
:name VICON
:units
  mass 1.0
  length 0.45
  angle deg
:documentation
   .ast/.asf automatically generated from VICON data using
   VICON BodyBuilder and BodyLanguage model FoxedUp or BRILLIANT.MOD
:root
   order TX TY TZ RX RY RZ
   axis XYZ
   position 0 0 0  
   orientation 0 0 0 
:bonedata
  begin
     id 1 
     name lhipjoint
     direction 0.623529 -0.717805 0.309788 
     length 2.23224 
     axis 0 0 0  XYZ
  end
  begin
     id 2 
     name lfemur
     direction 0.34202 -0.939693 0  
     length 7.11402  
     axis 0 0 20  XYZ
    dof rx ry rz
    limits (-160.0 20.0)
           (-70.0 70.0)
           (-60.0 70.0)
  end
  begin
     id 3 
     name ltibia
     direction 0.34202 -0.939693 0   
     length 6.78496   
     axis 0 0 20   XYZ
    dof rx
    limits (-10.0 170.0)
  end
  begin
     id 4 
     name lfoot
     direction 0.125078 -0.343648 0.930732   
     length 1.84054   
     axis -90 7.62852e-016 20   XYZ
    dof rx rz
    limits (-45.0 90.0)
           (-70.0 20.0)
  end
  begin
     id 5 
     name ltoes
     direction 1.53565e-011 -4.21893e-011 1   
     length 0.916474   
     axis -90 7.62852e-016 20   XYZ
    dof rx
    limits (-90.0 20.0)
  end
  begin
     id 6 
     name rhipjoint
     direction -0.564688 -0.757748 0.327026   
     length 2.11457  
     axis 0 0 0  XYZ 
  end
  begin
     id 7 
     name rfemur
     direction -0.34202 -0.939693 0   
     length 7.14609   
     axis 0 0 -20   XYZ
    dof rx ry rz
    limits (-160.0 20.0)
           (-70.0 70.0)
           (-70.0 60.0)
  end
  begin
     id 8 
     name rtibia
     direction -0.34202 -0.939693 0   
     length 6.78101   
     axis 0 0 -20   XYZ
    dof rx
    limits (-10.0 170.0)
 end
 begin
     id 9 
     name rfoot
     direction -0.0992671 -0.272734 0.956955   
     length 1.96168  
     axis -90 -7.62852e-016 -20   XYZ
    dof rx rz
    limits (-45.0 90.0)
           (-20.0 70.0)
  end
  begin
     id 10 
     name rtoes
     direction -1.5356e-011 -4.21891e-011 1   
     length 0.982933   
     axis -90 -7.62852e-016 -20   XYZ
    dof rx
    limits (-90.0 20.0)
  end
  begin
     id 11 
     name lowerback
     direction -0.00596953 0.998668 0.0512524   
     length 1.87557   
     axis 0 0 0   XYZ
    dof rx ry rz
    limits (-20.0 45.0)
           (-30.0 30.0)
           (-30.0 30.0)
  end
  begin
     id 12 
     name upperback
     direction 0.00584879 0.999652 0.0257308   
     length 1.87883   
     axis 0 0 0   XYZ
    dof rx ry rz
    limits (-20.0 45.0)
           (-30.0 30.0)
           (-30.0 30.0)
  end
  begin
     id 13 
     name thorax
     direction 0.010104 0.999947 0.00178881   
     length 1.87779   
     axis 0 0 0   XYZ
    dof rx ry rz
    limits (-20.0 45.0)
           (-30.0 30.0)
           (-30.0 30.0)
  end
  begin
     id 14 
     name lowerneck
     direction 0.0120771 0.995934 -0.0892773   
     length 1.40897   
     axis 0 0 0   XYZ
    dof rx ry rz
    limits (-20.0 45.0)
           (-30.0 30.0)
           (-30.0 30.0)
  end
  begin
     id 15 
     name upperneck
     direction -0.030568 0.999465 -0.0116366   
     length 1.38661   
     axis 0 0 0   XYZ
    dof rx ry rz
    limits (-20.0 45.0)
           (-30.0 30.0)
           (-30.0 30.0)
  end
  begin
     id 16
     name head
     direction -0.0170715 0.999854 -0.00104426  
     length 1.47052  
     axis 0 0 0   XYZ
    dof rx ry rz
    limits (-20.0 45.0)
           (-30.0 30.0)
           (-30.0 30.0)
  end
  begin
     id 17 
     name lclavicle
     direction 0.977763 0.206143 0.038532  
     length 3.02424  
     axis 0 0 0   XYZ
    dof ry rz
    limits (-20.0 10.0)
           (0.0 20.0)
  end
  begin
     id 18 
     name lhumerus
     direction 1 -4.48965e-011 -2.62654e-027   
     length 4.68382   
     axis 180 -30 -90   XYZ
    dof rx ry rz
    limits (-60.0 90.0)
           (-90.0 90.0)
           (-90.0 90.0)
  end
  begin
     id 19
     name lradius
     direction 1 -4.48973e-011 -1.54954e-027   
     length 2.98124   
     axis 180 -30 -90   XYZ
    dof rx
    limits (-10.0 170.0)
  end
  begin
     id 20
     name lwrist
     direction 1 -4.48959e-011 7.20928e-028   
     length 1.49062   
     axis -5.52449e-016 90 90   XYZ
    dof ry
    limits (-180.0 0.0)
 end
  begin
     id 21 
     name lhand
     direction 1 -4.48971e-011 1.44186e-027   
     length 0.707595   
     axis -9.20027e-016 90 90   XYZ
    dof rx rz
    limits (-90.0 90.0)
           (-45.0 45.0)
  end
  begin
     id 22 
     name lfingers
     direction 1 -4.48985e-011 2.88371e-027   
     length 0.570481   
     axis -1.84005e-015 90 90   XYZ
    dof rx
    limits (0.0 90.0)
  end
  begin
     id 23
     name lthumb
     direction 0.707107 -6.34929e-011 0.707107   
     length 0.819101   
     axis -90 45 2.85299e-015   XYZ
    dof rx rz
    limits (-45.0 45.0)
           (-45.0 45.0)
  end
  begin
     id 24 
     name rclavicle
     direction -0.958661 0.284411 -0.00895327   
     length 3.11921  
     axis 0 0 0   XYZ 
    dof ry rz
    limits (-10.0 20.0)
           (-20.0 0.0)
  end
  begin
     id 25 
     name rhumerus
     direction -1 -4.48963e-011 -4.22193e-027  
     length 4.75876   
     axis 180 30 90   XYZ
    dof rx ry rz
    limits (-90.0 60.0)
           (-90.0 90.0)
           (-90.0 90.0)
  end
  begin
     id 26 
     name rradius
     direction -1 -4.48968e-011 -1.07616e-027   
     length 2.93293   
     axis 180 30 90   XYZ
    dof rx
    limits (-10.0 170.0)
  end
  begin
     id 27 
     name rwrist
     direction -1 -4.48965e-011 7.20928e-028   
     length 1.46647   
     axis -5.52449e-016 -90 -90   XYZ
    dof ry
    limits (-180.0 0.0)
  end
  begin
     id 28
     name rhand
     direction -1 -4.48971e-011 1.44186e-027   
     length 0.831748   
     axis -9.20027e-016 -90 -90   XYZ
    dof rx rz
    limits (-90.0 90.0)
           (-45.0 45.0)
  end
  begin
     id 29
     name rfingers
     direction -1 -4.48961e-011 2.88371e-027   
     length 0.670577   
     axis -1.84005e-015 -90 -90   XYZ
    dof rx
    limits (0.0 90.0)
  end
  begin
     id 30
     name rthumb
     direction -0.707107 -6.34929e-011 0.707107   
     length 0.962818   
     axis -90 -45 -2.85299e-015   XYZ
    dof rx rz
    limits (-45.0 45.0)
           (-45.0 45.0)
  end
:hierarchy
  begin
    root lhipjoint rhipjoint lowerback
    lhipjoint lfemur
    lfemur ltibia
    ltibia lfoot
    lfoot ltoes
    rhipjoint rfemur
    rfemur rtibia
    rtibia rfoot
    rfoot rtoes
    lowerback upperback
    upperback thorax
    thorax lowerneck lclavicle rclavicle
    lowerneck upperneck
    upperneck head
    lclavicle lhumerus
    lhumerus lradius
    lradius lwrist
    lwrist lhand lthumb
    lhand lfingers
    rclavicle rhumerus
    rhumerus rradius
    rradius rwrist
    rwrist rhand rthumb
    rhand rfingers
  end

#!OML:ASF E:\id_vita\Project 1\Capture day 1\Session 1\Female.ASF
:FULLY-SPECIFIED
:DEGREES
392
root -24.3596 16.3838 2.09649 -166.836 9.74081 -176.248
lowerback -14.3984 -0.963388 -1.79046
upperback -6.19648 -0.299511 2.90817
thorax 1.56258 0.267642 4.02381
lowerneck 12.5864 6.43039 -0.57101
upperneck 1.79291 9.09356 6.55959
head -1.9437 4.54848 1.67902
rclavicle 3.10601e-015 2.18663e-014
rhumerus 65.3769 -7.94751 -53.1572
rradius 132.584
rwrist -9.41913
rhand -23.8026 27.0418
rfingers 7.12502
rthumb 2.66801 -2.92128
lclavicle 3.10601e-015 2.18663e-014
lhumerus -42.0229 35.3747 69.649
lradius 12.0647
lwrist -67.8272
lhand 4.20838 22.0946
lfingers 7.12502
lthumb 29.6146 49.751
rfemur -18.9788 5.8221 19.5451
rtibia 22.7578
rfoot -10.4707 -10.6032
rtoes -24.1049
lfemur -19.3669 -13.9594 -16.516
ltibia 29.121
lfoot -22.6974 14.6543
ltoes 3.98141
393
root -24.3588 16.3835 2.0992 -166.867 9.71928 -176.259
lowerback -14.3459 -1.02993 -1.80376
upperback -6.18755 -0.390633 2.93787
thorax 1.5517 0.221376 4.04822
lowerneck 12.6506 6.41203 -0.178701
upperneck 1.64555 9.07144 5.67751
head -1.92802 4.54496 1.32742
rclavicle -5.39203e-015 7.15625e-015
rhumerus 65.529 -7.81244 -53.1511
rradius 132.443
rwrist -9.36482
rhand -23.6841 27.0497
rfingers 7.12502
rthumb 2.78241 -2.91188
lclavicle -5.39203e-015 7.15625e-015
lhumerus -42.191 35.6341 69.4449
lradius 12.1037
lwrist -68
lhand 4.30971 21.9803
lfingers 7.12502
lthumb 29.7113 49.6195
rfemur -18.9521 5.77364 19.5572
rtibia 22.753
rfoot -10.4447 -10.5763
rtoes -24.0542
lfemur -19.3447 -13.9737 -16.5185
ltibia 29.1214
lfoot -22.7235 14.5588
ltoes 4.41469
394
root -24.3563 16.3815 2.09986 -166.902 9.73436 -176.269
lowerback -14.2907 -1.03443 -1.8478
upperback -6.18687 -0.394407 2.9047
thorax 1.5235 0.218403 4.03722
lowerneck 12.6571 6.35231 0.20754
upperneck 1.62644 9.02147 5.16951
head -1.88314 4.53064 1.10438
rclavicle 2.11706e-014 1.07344e-014
rhumerus 65.4305 -7.7646 -53.1655
rradius 132.781
rwrist -9.22634
rhand -23.4924 26.6792
rfingers 7.12502
rthumb 2.96759 -3.27986
lclavicle 2.11706e-014 1.07344e-014
lhumerus -42.1716 35.5573 69.4148
lradius 12.1175
lwrist -67.9519
lhand 4.36286 22.0105
lfingers 7.12502
lthumb 29.7621 49.6406
rfemur -18.9096 5.99599 19.5196
rtibia 22.7542
rfoot -10.3929 -10.7681
rtoes -24.4227
lfemur -19.2989 -14.0137 -16.5252
ltibia 29.1156
lfoot -22.702 14.5679
ltoes 4.64036
395
root -24.3557 16.3811 2.09862 -166.917 9.78752 -176.267
lowerback -14.3124 -1.03079 -1.86197
upperback -6.15698 -0.392673 2.90526
thorax 1.56642 0.216391 4.0465
lowerneck 12.6217 6.36054 0.197069
upperneck 1.56497 9.021 5.07213
head -1.89225 4.52849 1.07552
rclavicle 2.44754e-014 -8.94531e-015
rhumerus 65.4665 -7.6875 -53.1314
rradius 132.769
rwrist -9.13209
rhand -23.5116 26.7676
rfingers 7.12502
rthumb 2.94904 -3.19175
lclavicle 2.44754e-014 -8.94531e-015
lhumerus -42.2063 35.739 69.2698
lradius 12.0686
lwrist -68.0771
lhand 4.13637 21.924
lfingers 7.12502
lthumb 29.5459 49.5925
rfemur -18.889 6.13583 19.4935
rtibia 22.744
rfoot -10.3665 -10.8834
rtoes -24.6741
lfemur -19.2615 -14.026 -16.538
ltibia 29.1146
lfoot -22.6889 14.7097
ltoes 4.27259
396
root -24.3568 16.3816 2.09718 -166.953 9.81957 -176.251
lowerback -14.2421 -0.977579 -1.83795
upperback -6.1736 -0.324223 2.92145
thorax 1.50554 0.252251 4.05976
lowerneck 12.5929 6.30222 0.0860876
upperneck 1.51832 8.91594 4.94971
head -1.89913 4.47478 1.06176
rclavicle 3.59303e-014 7.95139e-015
rhumerus 65.3919 -7.71235 -52.9793
rradius 132.851
rwrist -9.25536
rhand -23.498 26.7683
rfingers 7.12502
rthumb 2.96215 -3.19083
lclavicle 3.59303e-014 7.95139e-015
lhumerus -42.1187 35.479 69.5448
lradius 12.064
lwrist -67.819
lhand 3.95552 21.8974
lfingers 7.12502
lthumb 29.3732 49.5963
rfemur -18.8312 6.16902 19.507
rtibia 22.7153
rfoot -10.3218 -10.8542
rtoes -24.6923
lfemur -19.2156 -13.9974 -16.5468
ltibia 29.1278
lfoot -22.6485 14.7834
ltoes 3.97768
397
root -24.3588 16.3831 2.09675 -166.97 9.84715 -176.233
lowerback -14.2287 -0.962929 -1.77507
upperback -6.16555 -0.314417 2.93073
thorax 1.50569 0.25571 4.03511
lowerneck 12.6298 6.24744 0.103049
upperneck 1.40038 8.82396 4.60823
head -1.92263 4.42908 0.953401
rclavicle 5.19325e-015 3.18055e-015
rhumerus 65.404 -7.63418 -52.9506
rradius 132.977
rwrist -9.33367
rhand -23.5119 26.7672
rfingers 7.12502
rthumb 2.94872 -3.19217
lclavicle 5.19325e-015 3.18055e-015
lhumerus -42.0808 35.43 69.6502
lradius 12.0977
lwrist -67.7423
lhand 4.02114 21.9175
lfingers 7.12502
lthumb 29.4359 49.6055
rfemur -18.803 6.15499 19.5272
rtibia 22.7057
rfoot -10.2538 -10.8268
rtoes -24.6162
lfemur -19.192 -14.0823 -16.5281
ltibia 29.1344
lfoot -22.6294 14.8096
ltoes 4.46897
398
root -24.3602 16.3843 2.09734 -166.923 9.86218 -176.25
lowerback -14.2526 -0.933546 -1.77608
upperback -6.18875 -0.270381 2.88556
thorax 1.49036 0.279077 3.99478
lowerneck 12.5799 6.10894 0.389794
upperneck 1.39286 8.65781 4.17553
head -1.87431 4.35608 0.781146
rclavicle -1.87355e-014 -1.39149e-015
rhumerus 65.2595 -7.62832 -52.9305
rradius 133.041
rwrist -9.29656
rhand -23.5418 26.957
rfingers 7.12502
rthumb 2.91986 -3.00277
lclavicle -1.87355e-014 -1.39149e-015
lhumerus -42.0522 35.357 69.6614
lradius 12.1288
lwrist -67.8084
lhand 4.09233 21.9236
lfingers 7.12502
lthumb 29.5038 49.5996
rfemur -18.8714 6.04233 19.5136
rtibia 22.7076
rfoot -10.2955 -10.7794
rtoes -25.0463
lfemur -19.261 -14.0986 -16.532
ltibia 29.1388
lfoot -22.6777 14.7347
ltoes 4.86338
399
root -24.3595 16.3827 2.09861 -166.896 9.85526 -176.306
lowerback -14.3088 -0.925867 -1.83837
upperback -6.18006 -0.252016 2.84167
thorax 1.52826 0.287374 3.98738
lowerneck 12.3839 6.02479 0.57238
upperneck 1.52278 8.55759 3.98791
head -1.77538 4.31645 0.70703
rclavicle 1.69961e-014 5.36719e-015
rhumerus 65.1764 -7.66597 -52.9448
rradius 133.067
rwrist -9.38412
rhand -23.4369 27.1827
rfingers 7.12502
rthumb 3.02121 -2.7756
lclavicle 1.69961e-014 5.36719e-015
lhumerus -41.9907 35.2414 69.7451
lradius 12.186
lwrist -67.7733
lhand 4.16189 21.9047
lfingers 7.12502
lthumb 29.5703 49.5689
rfemur -18.9224 5.99183 19.4536
rtibia 22.7077
rfoot -10.3848 -10.7551
rtoes -25.227
lfemur -19.3237 -13.8759 -16.6102
ltibia 29.1491
lfoot -22.7084 14.6259
ltoes 4.27039
400
root -24.361 16.3812 2.10149 -166.878 9.86096 -176.272
lowerback -14.1721 -0.920494 -1.79443
upperback -6.24954 -0.243546 2.85341
thorax 1.38137 0.297419 3.97418
lowerneck 12.1346 6.00355 0.567848
upperneck 1.78815 8.52317 3.99518
head -1.64337 4.31049 0.725372
rclavicle 3.42158e-014 -1.8487e-014
rhumerus 65.1185 -7.59918 -52.9326
rradius 133.124
rwrist -9.60689
rhand -23.299 27.223
rfingers 7.12502
rthumb 3.15431 -2.73339
lclavicle 3.42158e-014 -1.8487e-014
lhumerus -42.3116 35.5893 69.3701
lradius 12.2316
lwrist -68.2368
lhand 4.35216 21.7768
lfingers 7.12502
lthumb 29.7519 49.4087
rfemur -18.9523 6.0509 19.4656
rtibia 22.7103
rfoot -10.3855 -10.7153
rtoes -24.6793
lfemur -19.3557 -13.7872 -16.5855
ltibia 29.1615
lfoot -22.6749 14.6552
ltoes 3.63188
401
root -24.3636 16.3831 2.1028 -166.883 9.86131 -176.22
lowerback -14.2044 -0.933388 -1.67939
upperback -6.2342 -0.275682 2.89678
thorax 1.4168 0.279731 3.94993
lowerneck 12.1248 6.04549 0.321144
upperneck 1.79573 8.54013 3.97692
head -1.65046 4.31701 0.759771
rclavicle -1.2424e-016 3.97569e-016
rhumerus 65.1733 -7.48433 -52.8837
rradius 133.177
rwrist -9.77285
rhand -23.2903 27.0788
rfingers 7.12502
rthumb 3.16279 -2.87746
lclavicle -1.2424e-016 3.97569e-016
lhumerus -42.5692 36.0599 69.0338
lradius 12.2504
lwrist -68.6673
lhand 4.4486 21.673
lfingers 7.12502
lthumb 29.8439 49.2884
rfemur -18.9344 6.05625 19.5197
rtibia 22.6893
rfoot -10.3485 -10.6275
rtoes -24.5127
lfemur -19.3615 -13.8117 -16.5339
ltibia 29.1843
lfoot -22.6249 14.6834
ltoes 3.44753
402
root -24.3629 16.3841 2.10023 -166.926 9.85773 -176.278
lowerback -14.1507 -0.828746 -1.68107
upperback -6.20579 -0.144354 2.76157
thorax 1.40755 0.338678 3.82765
lowerneck 11.8107 5.95176 0.364367
upperneck 1.87729 8.41155 4.01289
head -1.56624 4.25572 0.782622
rclavicle -1.25483e-014 -4.01545e-014
rhumerus 65.0314 -7.71356 -52.7796
rradius 133.188
rwrist -9.84754
rhand -23.4747 26.8615
rfingers 7.12502
rthumb 2.98471 -3.09733
lclavicle -1.25483e-014 -4.01545e-014
lhumerus -42.3024 35.803 69.1607
lradius 12.2146
lwrist -68.6974
lhand 4.40654 21.6161
lfingers 7.12502
lthumb 29.8038 49.2387
rfemur -18.8601 6.03167 19.4778
rtibia 22.6541
rfoot -10.3198 -10.6323
rtoes -24.7694
lfemur -19.3253 -13.7401 -16.6187
ltibia 29.21
lfoot -22.6511 14.6312
ltoes 3.43737
403
root -24.3619 16.382 2.09909 -166.926 9.85174 -176.236
lowerback -14.1773 -0.90607 -1.6967
upperback -6.20335 -0.244076 2.86263
thorax 1.43227 0.291577 3.92846
lowerneck 11.8051 6.0266 0.212484
upperneck 1.85968 8.48019 3.87932
head -1.5724 4.2891 0.762252
rclavicle -1.04859e-014 1.64991e-014
rhumerus 65.16 -7.43208 -52.7579
rradius 133.236
rwrist -9.98615
rhand -23.5465 26.6661
rfingers 7.12502
rthumb 2.91531 -3.29374
lclavicle -1.04859e-014 1.64991e-014
lhumerus -42.5277 36.2292 68.883
lradius 12.1931
lwrist -68.9919
lhand 4.30867 21.4717
lfingers 7.12502
lthumb 29.7104 49.111
rfemur -18.8389 6.12116 19.505
rtibia 22.6612
rfoot -10.3783 -10.6623
rtoes -24.8432
lfemur -19.3038 -13.7577 -16.5697
ltibia 29.2058
lfoot -22.6934 14.6204
ltoes 3.6275
404
root -24.362 16.3798 2.09971 -166.949 9.86737 -176.202
lowerback -14.1139 -0.980117 -1.6899
upperback -6.21264 -0.344938 2.90603
thorax 1.39686 0.24217 3.95446
lowerneck 11.7383 5.97828 0.523153
upperneck 1.94106 8.43936 3.44983
head -1.49581 4.28107 0.584016
rclavicle 1.16786e-014 -1.15295e-014
rhumerus 65.2106 -7.13304 -52.8662
rradius 133.306
rwrist -10.1635
rhand -23.4503 26.597
rfingers 7.12502
rthumb 3.00821 -3.36155
lclavicle 1.16786e-014 -1.15295e-014
lhumerus -43.2001 37.3945 67.7489
lradius 12.164
lwrist -70.2803
lhand 4.23859 21.2566
lfingers 7.12502
lthumb 29.6435 48.9079
rfemur -18.8323 6.19112 19.5218
rtibia 22.6952
rfoot -10.4559 -10.6283
rtoes -24.7433
lfemur -19.2524 -14.0009 -16.5087
ltibia 29.1764
lfoot -22.6679 14.7977
ltoes 4.09965
405
root -24.3606 16.3791 2.09813 -166.994 9.91408 -176.313
lowerback -14.1913 -1.00496 -1.7984
upperback -6.18148 -0.368607 2.85073
thorax 1.47346 0.22717 3.95513
lowerneck 11.8652 5.94533 0.772003
upperneck 1.81399 8.41632 3.05158
head -1.5275 4.27348 0.414526
rclavicle 8.12532e-015 -2.00773e-014
rhumerus 65.1802 -7.02494 -52.9387
rradius 133.325
rwrist -10.4505
rhand -23.4192 26.5734
rfingers 7.12502
rthumb 3.0383 -3.38473
lclavicle 8.12532e-015 -2.00773e-014
lhumerus -43.8142 38.4283 66.654
lradius 12.1254
lwrist -71.6283
lhand 4.25034 21.137
lfingers 7.12502
lthumb 29.6547 48.7863
rfemur -18.8158 6.17187 19.4141
rtibia 22.7056
rfoot -10.4079 -10.6739
rtoes -24.6664
lfemur -19.1931 -14.1303 -16.6303
ltibia 29.16
lfoot -22.6862 14.9487
ltoes 4.37385
406
root -24.3603 16.3786 2.09679 -166.978 9.94008 -176.326
lowerback -14.1682 -0.932383 -1.81939
upperback -6.21604 -0.263578 2.84111
thorax 1.41623 0.283486 3.97253
lowerneck 11.8388 5.85696 0.722613
upperneck 1.78959 8.28569 2.93752
head -1.52639 4.20904 0.394234
rclavicle -1.73191e-014 3.97569e-015
rhumerus 64.9923 -7.06986 -52.7908
rradius 133.381
rwrist -10.8283
rhand -23.5664 26.5005
rfingers 7.12502
rthumb 2.89607 -3.45962
lclavicle -1.73191e-014 3.97569e-015
lhumerus -43.8073 38.3603 66.7606
lradius 12.1192
lwrist -71.6998
lhand 4.31639 21.2412
lfingers 7.12502
lthumb 29.7177 48.8792
rfemur -18.8384 6.13953 19.4076
rtibia 22.7191
rfoot -10.3083 -10.7453
rtoes -24.4922
lfemur -19.184 -14.1256 -16.6524
ltibia 29.1511
lfoot -22.6794 15.0028
ltoes 4.03366
